PathFileType	4	(X/Y/Z)	D:\TRACE\v60_Jaco2_6-2-23\JustArmDRS_Motion2_4-platform.trc
DataRate	CameraRate	NumFrames	NumMarkers	Units	OrigDataRate	OrigDataStartFrame	OrigNumFrames
100.00	100.00	      48	5	mm	100.00	4314	      6902
Frame#	Time	Left_Front			Right_Front			Left_Aft			Right_Aft			Post			
		X1	Y1	Z1	X2	Y2	Z2	X3	Y3	Z3	X4	Y4	Z4	X5	Y5	Z5	

4314	43.130	-752.29437	46.15209	-629.33374	817.82166	47.60491	-634.42358	-660.59650	-18.61149	504.12613	781.11420	-20.11124	513.51563	34.59730	1362.57227	-898.34863	
4315	43.140	-751.80927	47.16545	-628.89581	817.89221	48.65430	-634.03314	-660.13220	-19.36189	504.33414	781.70642	-21.16122	513.82886	35.14284	1364.38464	-895.81964	
4316	43.150	-751.46948	48.91542	-628.63605	818.53973	50.12821	-633.75659	-659.61981	-20.38851	504.45062	782.42627	-21.96440	514.23792	35.86709	1366.08887	-892.79773	
4317	43.160	-751.42413	50.00724	-628.19531	818.67682	50.92834	-633.27478	-659.30487	-21.15078	504.86774	782.82715	-22.80586	514.41620	36.74717	1367.73523	-889.40784	
4318	43.170	-750.81830	51.18904	-627.87750	819.22357	52.30037	-632.87531	-659.05969	-22.00130	505.06342	782.99713	-23.70679	514.46320	36.93091	1369.41113	-886.12885	
4319	43.180	-750.68988	52.20277	-627.59167	819.67096	53.77151	-632.41962	-658.69751	-23.01618	505.27011	783.07733	-24.82620	514.61957	37.00478	1370.80334	-882.28320	
4320	43.190	-750.37622	53.52231	-627.28906	819.67242	54.71772	-632.35400	-658.67706	-23.58356	505.49820	783.33154	-25.53376	514.86694	36.71920	1372.26709	-878.49609	
4321	43.200	-750.29065	54.42542	-626.78674	819.88220	55.80048	-631.95172	-658.62701	-24.33164	505.62006	783.50806	-26.23139	515.04163	36.89245	1373.71460	-874.64459	
4322	43.210	-750.06146	55.50848	-626.38361	819.85889	56.81437	-631.81201	-658.37158	-25.34676	505.90567	783.87390	-26.98031	515.74854	37.34517	1375.12646	-869.77783	
4323	43.220	-749.99652	56.53821	-626.04193	819.95215	57.72433	-631.49475	-658.21198	-25.86646	506.06662	784.03156	-27.91211	515.75824	37.45440	1376.05933	-865.33563	
4324	43.230	-749.93292	57.54178	-625.89020	820.06018	58.71363	-631.03967	-658.26978	-26.40570	506.27701	783.88190	-28.53292	516.06628	37.16174	1377.08728	-860.11646	
4325	43.240	-749.99762	58.67373	-625.45593	819.85468	59.54922	-630.92963	-658.13214	-27.45368	506.57034	784.15503	-29.17277	516.52814	37.28115	1378.02051	-854.75311	
4326	43.250	-750.03864	59.29268	-625.10840	819.78308	60.36199	-630.55487	-658.18512	-27.99279	506.56537	784.23883	-29.52177	515.77429	36.98871	1379.24023	-849.47992	
4327	43.260	-750.14825	60.37077	-624.68512	819.86914	61.46267	-630.20868	-658.24615	-28.53897	506.61203	784.16907	-30.23466	515.98285	36.61220	1380.18713	-843.63672	
4328	43.270	-750.16638	61.32785	-624.53296	819.93274	62.47382	-629.99951	-658.09784	-29.34815	506.92935	784.29431	-30.79394	516.26691	36.47958	1381.27905	-838.29858	
4329	43.280	-750.23322	62.37233	-624.23553	819.86084	63.28397	-629.64697	-658.18311	-30.02231	507.16284	784.31763	-31.65244	516.41522	36.62576	1382.46692	-834.65240	
4330	43.290	-750.27905	63.02963	-623.82178	819.47437	64.10659	-629.36432	-658.30511	-30.54480	507.13120	783.45868	-31.86689	516.77820	36.04719	1383.57202	-832.10376	
4331	43.300	-750.59705	63.90056	-623.79956	819.30969	65.08549	-629.03693	-658.69708	-31.09808	507.34946	783.28412	-32.73616	516.65613	35.82277	1384.86694	-831.34534	
4332	43.310	-750.84375	64.53442	-623.53241	819.15204	65.86039	-628.65479	-658.73511	-31.51915	507.48618	783.35706	-33.59453	516.94104	35.46003	1385.81921	-831.79065	
4333	43.320	-751.22595	65.55739	-623.38715	818.73450	66.44024	-628.44128	-659.31030	-32.36245	507.67407	783.21515	-34.00948	517.15259	35.47942	1387.02319	-833.17828	
4334	43.330	-751.57739	66.14100	-623.17645	818.34180	66.85609	-628.43347	-659.63867	-32.83875	507.94672	782.55682	-34.64426	517.22437	35.46030	1387.90686	-834.08740	
4335	43.340	-751.98279	66.62902	-622.91174	818.02081	67.36459	-628.32385	-659.75549	-33.08123	508.07773	782.39893	-35.01497	517.29816	35.34875	1388.73315	-835.10150	
4336	43.350	-752.42670	67.18031	-622.45624	817.84723	67.93061	-627.98529	-660.20599	-33.45525	508.07495	781.39398	-35.53646	517.83752	34.98951	1389.78394	-835.42542	
4337	43.360	-752.42230	67.52543	-622.13464	817.52460	68.61050	-627.79846	-660.66461	-33.90881	508.08096	780.98767	-35.70340	517.94128	34.50016	1390.54822	-835.33612	
4338	43.370	-752.87579	68.03674	-622.00537	817.08966	69.24200	-627.60638	-660.94708	-34.33851	508.17307	781.37317	-36.27361	518.08575	34.11949	1391.31299	-834.97577	
4339	43.380	-753.22021	68.52053	-621.91321	816.70581	69.68717	-627.53967	-660.99127	-34.74891	508.24603	781.18463	-36.67820	518.23590	33.88946	1391.88989	-834.66504	
4340	43.390	-753.60944	69.09782	-621.90509	816.13165	70.09496	-627.32709	-661.61700	-35.26137	508.31158	780.45465	-37.28522	518.01910	33.53537	1392.65198	-833.72607	
4341	43.400	-754.19635	69.83063	-621.80591	815.61884	70.46886	-627.15625	-661.94342	-35.78173	508.51114	779.75842	-37.62884	518.08350	33.67809	1393.33154	-832.46088	
4342	43.410	-754.73291	70.31023	-621.74078	815.13843	70.80292	-627.06097	-662.28790	-36.21511	508.65503	779.04034	-37.73611	518.52777	32.77600	1393.80627	-830.83899	
4343	43.420	-755.45123	70.82753	-621.65295	814.59192	71.26183	-626.90717	-663.43372	-35.86294	508.60150	778.99432	-38.18723	518.51117	31.70865	1394.44824	-829.19373	
4344	43.430	-755.86444	70.99368	-621.51337	814.17834	71.65302	-626.74335	-663.90167	-36.20113	508.72903	778.62970	-38.52990	518.63837	31.82636	1394.69812	-826.83325	
4345	43.440	-756.24170	71.24676	-621.25433	813.75812	71.83932	-626.61676	-664.18945	-36.44820	508.78683	778.45264	-38.94513	518.80017	31.23487	1395.08948	-824.26300	
4346	43.450	-756.64917	71.56377	-621.09503	813.09076	72.09496	-626.54077	-665.40662	-36.19353	509.06662	777.34760	-39.08557	518.73016	30.14964	1395.20227	-821.50946	
4347	43.460	-757.17279	71.71642	-621.04639	812.54034	72.42035	-626.43726	-665.95404	-36.41150	509.08020	776.26007	-39.04719	518.86450	29.91372	1395.07117	-818.79669	
4348	43.470	-757.97388	71.86311	-620.90167	812.09869	72.56460	-626.39612	-665.96027	-36.89291	508.87329	776.03674	-39.07269	518.85992	28.98881	1395.10547	-815.48480	
4349	43.480	-758.58380	71.96946	-620.99115	811.47540	72.74284	-626.33228	-666.53619	-37.03358	508.89890	775.96521	-39.42538	518.85193	27.93853	1395.29883	-813.78558	
4350	43.490	-759.22662	72.03989	-621.11115	810.82062	73.03374	-626.25366	-667.37469	-36.69040	508.97775	775.05658	-39.60859	518.87927	27.65609	1395.40051	-813.18427	
4351	43.500	-759.76581	72.08532	-620.98596	810.20239	73.19756	-626.25055	-667.92047	-36.81032	509.11340	774.55096	-39.61702	518.81555	26.93969	1395.50610	-813.59442	
4352	43.510	-760.29205	72.02043	-620.79968	809.61810	73.06628	-626.33844	-668.70605	-36.91873	509.06415	773.48914	-39.47882	519.11957	26.41677	1395.67468	-814.25684	
4353	43.520	-761.05231	72.22289	-620.69025	808.99133	72.95232	-626.30835	-669.40448	-36.99148	509.02597	773.27777	-39.65936	519.11713	26.13738	1396.02893	-816.43073	
4354	43.530	-761.76538	72.21237	-620.74628	808.21283	72.85036	-626.32037	-669.93439	-36.92473	508.93390	772.60333	-39.71011	518.96973	25.75708	1395.97668	-818.93713	
4355	43.540	-762.48895	72.29727	-620.83777	807.53455	72.94080	-626.27338	-670.66321	-36.78484	508.92789	771.95044	-39.56446	519.10266	24.54534	1396.13599	-821.00873	
4356	43.550	-763.25311	72.18586	-621.02075	806.60059	72.86163	-626.24542	-671.60486	-36.76060	508.88922	770.85040	-39.31086	519.50940	23.80450	1396.14612	-822.17792	
4357	43.560	-763.92731	71.98554	-620.84125	806.04700	72.63985	-626.26215	-672.15930	-36.57154	509.04486	770.37115	-39.47372	519.47711	23.58581	1395.87976	-823.26154	
4358	43.570	-764.51306	71.85806	-620.82727	805.62683	72.55627	-626.26025	-672.77490	-36.58606	509.06738	769.17328	-39.25069	519.38953	22.81428	1395.79028	-824.60712	
4359	43.580	-765.44336	71.73482	-620.99432	804.72986	72.40887	-626.36200	-673.64264	-36.61785	508.99124	768.82886	-39.30568	518.92371	22.06755	1395.44836	-825.03619	
4360	43.590	-766.26910	71.31461	-621.05042	803.65582	72.00276	-626.47101	-674.23297	-36.42287	508.84741	768.17987	-39.20222	518.81116	21.17277	1395.31494	-825.10382	
4361	43.600	-767.04523	71.26274	-621.29700	803.06311	71.77376	-626.57660	-675.02692	-36.16785	508.76974	767.75104	-39.04914	518.77386	20.39681	1394.87073	-824.78046	
